<?xml version="1.0" encoding="UTF-8"?>
<!-- Generator: Adobe Illustrator 26.3.1, SVG Export Plug-In . SVG Version: 6.00 Build 0)  -->
<svg version="1.1" id="Calque_1" xmlns="http://www.w3.org/2000/svg" xmlns:xlink="http://www.w3.org/1999/xlink" x="0px" y="0px" viewBox="0 0 546.5 185.8" style="enable-background:new 0 0 546.5 185.8;" xml:space="preserve">
<style type="text/css">
	.st0{fill:none;}
	.st1{fill:#96154A;}
	.st2{fill:#F6ABB6;}
</style>
<rect y="0" class="st0" width="546.5" height="185.8"/>
<path class="st1" d="M414.2,69.1c-1.7,0.5-3.3,1.3-4.7,2.3c-5,3.7-6.3,10.8-3.8,16.4c2.7,5.8,8.9,9,15.2,7.9c5-0.7,9.1-4,10.9-8.7  l-5-2c-2,4.5-7.2,6.5-11.6,4.6c-1.3-0.6-2.5-1.5-3.4-2.6l20.5-6.8C430.8,71.4,422.7,66.6,414.2,69.1z M410.6,82.8  c-0.9-3.9,1.3-7.8,5.1-9c3.8-1.2,8,0.2,9.5,3.9L410.6,82.8z M402,71c-0.4-6.6-5.8-11.8-12.4-11.9h-11.2c-4.1,0.1-7.3,3.4-7.2,7.4  v28.8h6.5v-11h11.5l7.8,11h8l-9-12.8C400,80.2,402.4,75.7,402,71z M391,77.6c-0.3,0.1-0.7,0.2-1,0.2h-12.4V67.7  c0-1.2,0.9-2.1,2.1-2.1l0,0h9.8c3.4,0,6.1,2.8,6.1,6.1C395.5,74.5,393.7,76.9,391,77.6L391,77.6z M504.1,68.9v12.9  c0,4.4-3.1,7.7-7.2,7.7s-7.2-3.3-7.2-7.7V68.9h-6.2v12.8c-0.2,7.4,5.7,13.6,13.1,13.8c0.1,0,0.2,0,0.3,0c2.6,0,5.1-0.8,7.2-2.3v3.3  c0,6.7-5.4,11.9-12.6,11.9c-8.5,0-12.6-4.8-13.2-9.3h-5.9c0.8,8.9,8.6,15.1,19.1,15.2c10,0.1,18.9-7.8,18.7-17.9V68.9H504.1z   M472.5,95.3h5.9V68.9h-5.9v2.5c-5.9-4.6-14.5-3.5-19.1,2.4s-3.5,14.5,2.4,19.1c4.9,3.8,11.8,3.8,16.7,0V95.3z M464.2,90.3  c-4.5,0-8.1-3.6-8.1-8.1s3.6-8.1,8.1-8.1s8.1,3.6,8.1,8.1l0,0C472.3,86.7,468.6,90.3,464.2,90.3L464.2,90.3z M445.6,89.7  c-2.5,0-4.5-1.9-4.5-4.4l0,0V59.1H435v26.2c0,5.8,4.8,10.6,10.6,10.5c2.5,0,4.9-0.8,6.8-2.4l-3.9-4.8  C447.7,89.3,446.7,89.7,445.6,89.7L445.6,89.7z M242.6,72.3v-3.4h-5.9v26.4h6.1V82c-0.1-4.8,2.6-8,7.4-8c4.3,0,6.3,2.7,6.3,7v14.3  h6.1V80.2c0-3.8-1-6.7-3-8.7C255.5,67.4,246.4,67.6,242.6,72.3z M197.8,60.4l-9.6,13.5l-9.7-13.5c-1-1.4-2.9-1.7-4.3-0.7  c-0.8,0.6-1.3,1.5-1.3,2.5v33.1h6.5V73.4c2.3,2.9,6.7,8.3,6.9,8.5c1.1,1,2.8,1,3.9,0c0.2-0.2,4.6-5.6,6.9-8.5v21.9h6.5V62.2  c0-1.7-1.4-3.1-3.1-3.1C199.3,59.1,198.3,59.6,197.8,60.4z M220,68.3c-7.6-0.1-13.9,6-14,13.6s6,13.9,13.6,14s13.9-6,14-13.6  c0-0.1,0-0.1,0-0.2C233.7,74.6,227.6,68.4,220,68.3L220,68.3z M220.2,90.1c-4.3,0.1-7.8-3.3-7.9-7.6c-0.1-4.3,3.3-7.8,7.6-7.9  s7.8,3.3,7.9,7.6v0.1C227.9,86.6,224.5,90,220.2,90.1L220.2,90.1z M330,71.5c-5.9-4.6-14.5-3.5-19.1,2.4s-3.5,14.5,2.4,19.1  c4.9,3.8,11.8,3.8,16.7,0v2.2h5.9V68.9H330V71.5z M321.7,90.4c-4.5,0-8.1-3.6-8.1-8.1s3.6-8.1,8.1-8.1s8.1,3.6,8.1,8.1l0,0  C329.8,86.8,326.2,90.4,321.7,90.4L321.7,90.4z M287.7,71.5c-5.9-4.6-14.5-3.5-19.1,2.4S265.1,88.4,271,93c4.9,3.8,11.7,3.8,16.6,0  v2.2h6.1V59.5h-6.1v12H287.7z M279.4,90.4c-4.5,0-8.1-3.6-8.1-8.1s3.6-8.1,8.1-8.1s8.1,3.6,8.1,8.1l0,0  C287.5,86.8,283.8,90.4,279.4,90.4L279.4,90.4z M351.7,89.5c-2.5,0-4.5-1.9-4.5-4.4l0,0V59.8l-6.1,4v21.4c0,5.8,4.8,10.6,10.6,10.5  c2.5,0,4.9-0.9,6.8-2.4l-3.9-4.8C353.7,89.2,352.7,89.5,351.7,89.5z M302,59.1c-2.1,0-3.9,1.7-3.9,3.8s1.7,3.9,3.8,3.9  c2.1,0,3.9-1.7,3.9-3.8l0,0C305.8,60.9,304.1,59.2,302,59.1z M298.9,95.3h6.1V70.6h-6.1V95.3z"/>
<path class="st1" d="M368.4,124.4h-5.1v-5.8h-3.6v5.8h-10.3l13.2-17h-4.1L344.6,125v2.7h14.9v6.6h3.7v-6.6h5.1L368.4,124.4  L368.4,124.4z M368.1,138.1h3.3l12.7-36.1h-3.3L368.1,138.1z M386.2,107.4v8.1h3.7v-4.8h12.3l-10.6,23.5h4.1l10.9-24.3v-2.6  L386.2,107.4z M286.8,117.4V114h-3.5v20.3h3.7v-10.2c-0.1-1.9,0.5-3.7,1.7-5.1c1.2-1.2,3-1.9,4.7-1.8c0.4,0,0.6,0,0.8,0v-3.6  c-1.6,0-3.1,0.3-4.6,0.9C288.5,115.2,287.5,116.2,286.8,117.4z M309.1,123.6c-1.3-0.4-2.6-0.7-4-0.9c-1.2-0.2-2.2-0.4-2.9-0.6  c-0.6-0.2-1.2-0.4-1.7-0.8s-0.7-1-0.7-1.6c0-0.8,0.5-1.6,1.2-2c1.1-0.6,2.3-0.8,3.6-0.8c2.1,0,4.1,0.5,5.9,1.6l1.6-2.9  c-1-0.6-2.2-1.1-3.3-1.3c-1.3-0.3-2.7-0.5-4.1-0.5c-2.2-0.1-4.3,0.5-6.2,1.7c-1.5,1-2.3,2.7-2.3,4.4c-0.1,1.2,0.3,2.4,1.1,3.3  c0.7,0.8,1.6,1.4,2.7,1.7c1.3,0.4,2.6,0.7,4,0.9c1.2,0.2,2.1,0.4,2.8,0.6c0.6,0.1,1.2,0.4,1.6,0.8s0.7,0.9,0.7,1.5  c0,1.8-1.6,2.8-4.8,2.8c-1.3,0-2.6-0.2-3.9-0.6c-1.2-0.3-2.3-0.9-3.3-1.5l-1.5,2.9c1.1,0.8,2.3,1.4,3.6,1.7c1.6,0.4,3.2,0.7,4.8,0.7  c2.3,0.1,4.5-0.5,6.4-1.6c1.5-1,2.4-2.6,2.4-4.4c0.1-1.2-0.3-2.3-1.1-3.2C311,124.5,310.1,124,309.1,123.6z M337.8,123  c1.4-1.2,2.6-2.7,3.5-4.4c0.6-1.3,0.9-2.7,0.9-4.1c0.1-2.1-0.8-4.1-2.5-5.5c-1.9-1.4-4.3-2.1-6.7-2c-2,0-3.9,0.3-5.7,1.1  c-1.6,0.6-3,1.7-4.1,3l2.6,2.3c1.7-2,4.2-3.1,6.9-2.9c1.5-0.1,3,0.3,4.2,1.2c1,0.8,1.5,2,1.5,3.3c0,1-0.2,1.9-0.7,2.8  c-0.7,1.2-1.6,2.4-2.7,3.3l-10.9,10.6v2.6h19.3V131h-13.8L337.8,123z M176.7,107.4h-3.8v26.9h18.4V131h-14.5L176.7,107.4  L176.7,107.4z M208.2,115.1c-1.7-0.9-3.5-1.4-5.4-1.3c-1.9,0-3.8,0.4-5.4,1.3c-1.6,0.9-2.9,2.1-3.8,3.7c-1.8,3.3-1.8,7.4,0,10.7  c0.9,1.6,2.2,2.8,3.8,3.7c1.7,0.9,3.5,1.4,5.4,1.4s3.8-0.4,5.4-1.4c1.6-0.9,2.9-2.1,3.8-3.7c1.8-3.3,1.8-7.4,0-10.7  C211.1,117.2,209.8,115.9,208.2,115.1z M208.7,127.9c-0.6,1.1-1.4,1.9-2.4,2.5c-2.2,1.2-4.8,1.2-7,0c-1-0.6-1.9-1.5-2.4-2.5  c-1.2-2.3-1.2-5.1,0-7.5c0.6-1.1,1.4-1.9,2.4-2.5c2.2-1.2,4.8-1.2,7,0c1,0.6,1.9,1.5,2.4,2.5C209.9,122.7,209.9,125.5,208.7,127.9z   M222.9,117.9c1.1-0.6,2.3-0.9,3.6-0.9c1.1,0,2.2,0.2,3.1,0.7c1,0.5,1.8,1.3,2.4,2.2l2.8-1.8c-0.8-1.4-1.9-2.5-3.4-3.2  c-1.5-0.8-3.2-1.1-4.9-1.1c-1.9,0-3.8,0.4-5.5,1.3c-1.6,0.8-2.9,2.1-3.8,3.7c-1.8,3.3-1.8,7.4,0,10.7c0.9,1.6,2.2,2.8,3.8,3.7  c1.7,0.9,3.6,1.4,5.5,1.4c1.7,0,3.4-0.4,4.9-1.1c1.4-0.7,2.6-1.9,3.4-3.2l-2.8-1.8c-0.6,0.9-1.4,1.7-2.4,2.2s-2.1,0.7-3.1,0.7  c-1.3,0-2.5-0.3-3.6-0.9c-1.1-0.6-1.9-1.5-2.5-2.5c-0.6-1.2-0.9-2.5-0.9-3.8s0.3-2.6,0.9-3.7C221,119.3,221.8,118.4,222.9,117.9  L222.9,117.9z M257.8,114h-4.4l-11.1,10.1v-18.3h-3.7v28.5h3.7v-5.6l4.2-3.9l7.6,9.5h4.5l-9.4-11.9L257.8,114z M277.5,118.6  c-0.9-1.5-2.1-2.7-3.6-3.5s-3.3-1.3-5-1.2c-1.8,0-3.6,0.4-5.2,1.3c-1.5,0.9-2.8,2.2-3.6,3.7c-0.9,1.6-1.4,3.5-1.3,5.3  c0,1.9,0.4,3.7,1.4,5.4c0.9,1.6,2.2,2.9,3.9,3.7c3.2,1.6,7,1.8,10.3,0.5c1.3-0.5,2.5-1.4,3.4-2.4l-2-2.4c-1.5,1.6-3.6,2.5-5.9,2.4  c-1.5,0-3.1-0.4-4.4-1.1c-1.2-0.8-2.1-1.9-2.6-3.3l16.2-3.2C278.9,121.9,278.5,120.1,277.5,118.6L277.5,118.6z M262.2,124.4V124  c0-1.3,0.3-2.6,0.9-3.7c0.5-1,1.4-1.9,2.4-2.5s2.2-0.9,3.4-0.9c1.5,0,3,0.5,4.1,1.4s1.9,2.2,2.2,3.6L262.2,124.4z"/>
<path class="st2" d="M134,39.9c-4.6-1.1-28.6-3.7-42.7-3.7s-38.1,2.6-42.7,3.7c-7.1,1.8-12.1,8.1-12.4,15.4v75.2  c0.3,7.3,5.3,13.6,12.4,15.4c4.6,1.1,28.6,3.7,42.7,3.7s38.1-2.6,42.7-3.7c7.1-1.8,12.1-8.1,12.4-15.4V55.3  C146.2,48,141.1,41.7,134,39.9z"/>
<path class="st1" d="M99.8,77v14C90.3,89.3,84,94.3,84,102.6v18.8l-14.9,9.5v-28.4C69.1,86.1,80.5,74.6,99.8,77z M86.2,71.1  c4.7,0,8.5-3.8,8.5-8.6S91,54,86.2,54c-4.7,0-8.5,3.8-8.5,8.5C77.7,67.2,81.5,71.1,86.2,71.1L86.2,71.1z M103.4,89.8  c0,1.1,0.8,2,1.8,2.2c2.1,0.3,4.2,0.5,6.2,0.6c2.1,0,4.2-0.2,6.2-0.6c1-0.3,1.8-1.2,1.8-2.2v-11c0-1.1-0.8-2-1.8-2.2  c-2.1-0.3-4.1-0.5-6.2-0.6c-2.1,0-4.2,0.2-6.2,0.6c-1,0.3-1.8,1.2-1.8,2.2V89.8z"/>
</svg>