<svg xmlns="http://www.w3.org/2000/svg" viewBox="0 0 95.64 32.51"><defs><style>.a883a38e-f28b-4730-961c-f34d972e3b6b{fill:#96154a;}.a95e7097-0bd5-4972-94a4-31bc2f13cc0f{fill:#fff;}.fcfda7fd-cc1b-4a5d-9db2-dcfb7cd16a04{fill:#f6abb6;}.f7a5f7f4-727d-413e-8a16-d07a03ca199c{fill:none;}</style></defs><g id="f8cc273c-4b48-4c0d-99d0-3d0d2949e34d" data-name="Calque 2"><g id="ea6a2cf0-a7a4-486d-aae9-23ce6c160616" data-name="Calque 1"><path class="a883a38e-f28b-4730-961c-f34d972e3b6b" d="M39.24,18.42a.41.41,0,0,0-.31.12.38.38,0,0,0-.13.3.37.37,0,0,0,.13.29.41.41,0,0,0,.31.12.43.43,0,0,0,.31-.12.42.42,0,0,0,.13-.31.41.41,0,0,0-.13-.29A.42.42,0,0,0,39.24,18.42Z"/><path class="a883a38e-f28b-4730-961c-f34d972e3b6b" d="M42.56,19.91a2,2,0,0,0-.76.14,1.25,1.25,0,0,0-.53.43v-.54h-.61V23.5h.64V21.67a1.2,1.2,0,0,1,.3-.88,1.15,1.15,0,0,1,.83-.31.91.91,0,0,1,.71.27,1.06,1.06,0,0,1,.25.78v2H44V21.45a1.57,1.57,0,0,0-.4-1.15A1.49,1.49,0,0,0,42.56,19.91Z"/><path class="a883a38e-f28b-4730-961c-f34d972e3b6b" d="M38.51,12a2.42,2.42,0,1,0,2.38,2.41A2.4,2.4,0,0,0,38.51,12Zm0,3.8a1.36,1.36,0,1,1,1.33-1.35A1.35,1.35,0,0,1,38.54,15.76Z"/><path class="a883a38e-f28b-4730-961c-f34d972e3b6b" d="M46,16.68V14a2,2,0,0,0-.53-1.51,2.22,2.22,0,0,0-3,.13v-.59h-1v4.62H42.5V14.34A1.22,1.22,0,0,1,43.79,13c.75,0,1.1.46,1.1,1.22v2.51Z"/><path class="a883a38e-f28b-4730-961c-f34d972e3b6b" d="M37.26,20.14a2.08,2.08,0,0,0-1.9,0,1.65,1.65,0,0,0-.67.64,2,2,0,0,0,0,1.88,1.75,1.75,0,0,0,.67.65,2.08,2.08,0,0,0,1.9,0,1.79,1.79,0,0,0,.66-.65,2,2,0,0,0,0-1.88A1.69,1.69,0,0,0,37.26,20.14Zm.09,2.24a1.11,1.11,0,0,1-.42.44,1.3,1.3,0,0,1-.62.16,1.23,1.23,0,0,1-.61-.16,1.07,1.07,0,0,1-.43-.44,1.32,1.32,0,0,1-.16-.66,1.25,1.25,0,0,1,.16-.65,1,1,0,0,1,.43-.44,1.13,1.13,0,0,1,.61-.16,1.19,1.19,0,0,1,.62.16,1,1,0,0,1,.42.44,1.36,1.36,0,0,1,.16.65A1.43,1.43,0,0,1,37.35,22.38Z"/><rect class="a883a38e-f28b-4730-961c-f34d972e3b6b" x="38.92" y="19.94" width="0.64" height="3.56"/><path class="a883a38e-f28b-4730-961c-f34d972e3b6b" d="M31.38,12.85c.4.51,1.17,1.45,1.2,1.49a.52.52,0,0,0,.68,0s.8-1,1.2-1.49v3.83h1.13V10.89a.54.54,0,0,0-1-.32l-1.69,2.36-1.69-2.36a.55.55,0,0,0-1,.32v5.79h1.14Z"/><path class="a883a38e-f28b-4730-961c-f34d972e3b6b" d="M66.08,14.75h2l1.37,1.93h1.39l-1.58-2.24a2.1,2.1,0,0,0,1.09-2,2.2,2.2,0,0,0-2.18-2.07h-2a1.28,1.28,0,0,0-1.27,1.3v5h1.14Zm0-2.9a.37.37,0,0,1,.36-.37h1.71a1.07,1.07,0,0,1,.28,2.11,1,1,0,0,1-.17,0H66.08Z"/><path class="a883a38e-f28b-4730-961c-f34d972e3b6b" d="M61.54,16.74a1.9,1.9,0,0,0,1.19-.42l-.68-.83a.79.79,0,0,1-.51.18.78.78,0,0,1-.78-.77V10.46l-1.08.69V14.9A1.85,1.85,0,0,0,61.54,16.74Z"/><path class="a883a38e-f28b-4730-961c-f34d972e3b6b" d="M46.27,23a.57.57,0,0,1-.42-.16.64.64,0,0,1-.14-.44V20.47h1v-.53h-1v-.78h-.65v3.27a1.09,1.09,0,0,0,.3.82,1.15,1.15,0,0,0,.83.29,1.54,1.54,0,0,0,.43-.06,1.06,1.06,0,0,0,.35-.19l-.2-.46A.8.8,0,0,1,46.27,23Z"/><path class="a883a38e-f28b-4730-961c-f34d972e3b6b" d="M33.52,19.23a2.19,2.19,0,0,0-1.44-.43H30.24v4.7h.68V22.08h1.16a2.19,2.19,0,0,0,1.44-.44,1.47,1.47,0,0,0,.52-1.2A1.5,1.5,0,0,0,33.52,19.23Zm-.49,2a1.51,1.51,0,0,1-1,.27H30.92V19.38h1.14a1.51,1.51,0,0,1,1,.27,1,1,0,0,1,.34.79A.93.93,0,0,1,33,21.22Z"/><path class="a883a38e-f28b-4730-961c-f34d972e3b6b" d="M23.46,7A53.07,53.07,0,0,0,16,6.33,52.9,52.9,0,0,0,8.51,7,2.9,2.9,0,0,0,6.33,9.68V22.83a2.9,2.9,0,0,0,2.18,2.69,52.9,52.9,0,0,0,7.47.66,53.07,53.07,0,0,0,7.48-.66,2.88,2.88,0,0,0,2.17-2.69V9.68A2.88,2.88,0,0,0,23.46,7Z"/><path class="a883a38e-f28b-4730-961c-f34d972e3b6b" d="M56.3,16.78a2.4,2.4,0,0,0,1.46-.49v.39h1V12.06h-1v.46a2.38,2.38,0,0,0-3.84,1.88A2.38,2.38,0,0,0,56.3,16.78Zm0-3.8a1.42,1.42,0,1,1-1.42,1.42A1.43,1.43,0,0,1,56.3,13Z"/><path class="a883a38e-f28b-4730-961c-f34d972e3b6b" d="M72.48,12.09a2.58,2.58,0,0,0-.81.41A2.38,2.38,0,0,0,71,15.37a2.48,2.48,0,0,0,2.66,1.38,2.39,2.39,0,0,0,1.91-1.52l-.87-.34a1.54,1.54,0,0,1-2.63.34l3.58-1.18A2.41,2.41,0,0,0,72.48,12.09Zm-.62,2.41a1.37,1.37,0,0,1,2.56-.9Z"/><path class="a883a38e-f28b-4730-961c-f34d972e3b6b" d="M71.3,21.64a4.48,4.48,0,0,0-.69-.16l-.5-.11a.71.71,0,0,1-.3-.15.33.33,0,0,1-.12-.27.41.41,0,0,1,.21-.36,1.23,1.23,0,0,1,.63-.13,1.85,1.85,0,0,1,1,.28l.27-.51a2,2,0,0,0-.58-.24,3.51,3.51,0,0,0-.71-.08,1.78,1.78,0,0,0-1.09.29.92.92,0,0,0-.4.77.83.83,0,0,0,.2.59,1,1,0,0,0,.46.29,5.32,5.32,0,0,0,.7.16,3.7,3.7,0,0,1,.49.1.78.78,0,0,1,.29.13.35.35,0,0,1,.11.26c0,.32-.28.48-.85.48a2.22,2.22,0,0,1-.67-.1,1.68,1.68,0,0,1-.57-.27l-.27.51a1.85,1.85,0,0,0,.63.3,2.94,2.94,0,0,0,.84.12,1.86,1.86,0,0,0,1.12-.29.87.87,0,0,0,.42-.76.83.83,0,0,0-.19-.57A1,1,0,0,0,71.3,21.64Z"/><rect class="a883a38e-f28b-4730-961c-f34d972e3b6b" x="67.65" y="19.94" width="0.64" height="3.56"/><path class="a883a38e-f28b-4730-961c-f34d972e3b6b" d="M68,18.42a.41.41,0,0,0-.31.12.38.38,0,0,0-.13.3.37.37,0,0,0,.13.29.41.41,0,0,0,.31.12.43.43,0,0,0,.31-.12.42.42,0,0,0,.13-.31.41.41,0,0,0-.13-.29A.42.42,0,0,0,68,18.42Z"/><path class="a883a38e-f28b-4730-961c-f34d972e3b6b" d="M78,15.7a.78.78,0,0,1-.79-.77V10.35H76.12v4.58a1.87,1.87,0,0,0,3,1.42l-.68-.83A.83.83,0,0,1,78,15.7Z"/><path class="a883a38e-f28b-4730-961c-f34d972e3b6b" d="M88.22,12.06v2.25a1.27,1.27,0,1,1-2.53,0V12.06H84.61v2.25A2.36,2.36,0,0,0,87,16.73a2.11,2.11,0,0,0,1.26-.41v.59a2.31,2.31,0,0,1-4.51.47h-1A3.11,3.11,0,0,0,86,20a3.18,3.18,0,0,0,3.27-3.13V12.06Z"/><path class="a883a38e-f28b-4730-961c-f34d972e3b6b" d="M82.68,16.68h1V12.06h-1v.44a2.36,2.36,0,0,0-1.45-.5,2.38,2.38,0,0,0,0,4.76,2.35,2.35,0,0,0,1.45-.49Zm-1.45-.88a1.42,1.42,0,1,1,1.42-1.42A1.42,1.42,0,0,1,81.23,15.8Z"/><path class="a883a38e-f28b-4730-961c-f34d972e3b6b" d="M49.53,21.64a4.78,4.78,0,0,0-.69-.16l-.5-.11a.71.71,0,0,1-.3-.15.33.33,0,0,1-.12-.27.41.41,0,0,1,.21-.36,1.21,1.21,0,0,1,.63-.13,1.87,1.87,0,0,1,1,.28l.27-.51a2,2,0,0,0-.58-.24,3.53,3.53,0,0,0-.72-.08,1.77,1.77,0,0,0-1.08.29.89.89,0,0,0-.4.77.82.82,0,0,0,.19.59,1,1,0,0,0,.47.29,5.32,5.32,0,0,0,.7.16,4.08,4.08,0,0,1,.49.1.86.86,0,0,1,.29.13.35.35,0,0,1,.11.26c0,.32-.28.48-.85.48a2.22,2.22,0,0,1-.67-.1,1.83,1.83,0,0,1-.58-.27l-.26.51a1.85,1.85,0,0,0,.63.3,2.94,2.94,0,0,0,.84.12,1.86,1.86,0,0,0,1.12-.29.87.87,0,0,0,.42-.76.83.83,0,0,0-.19-.57A1,1,0,0,0,49.53,21.64Z"/><rect class="a883a38e-f28b-4730-961c-f34d972e3b6b" x="52.31" y="12.36" width="1.08" height="4.32"/><path class="a883a38e-f28b-4730-961c-f34d972e3b6b" d="M65.91,20.48a1.38,1.38,0,0,0-.53-.43,1.67,1.67,0,0,0-.71-.14,1.93,1.93,0,0,0-.93.22,1.78,1.78,0,0,0-.64.64,2,2,0,0,0-.23.95,1.94,1.94,0,0,0,.23,1,1.64,1.64,0,0,0,.64.64,1.94,1.94,0,0,0,.93.23,1.73,1.73,0,0,0,.73-.15,1.48,1.48,0,0,0,.54-.45v.56h.62V19.94h-.65Zm-.14,1.9a1.21,1.21,0,0,1-.43.44,1.29,1.29,0,0,1-.61.16,1.27,1.27,0,0,1-.62-.16,1.21,1.21,0,0,1-.43-.44,1.43,1.43,0,0,1-.16-.66,1.36,1.36,0,0,1,.16-.65,1.07,1.07,0,0,1,.43-.44,1.17,1.17,0,0,1,.62-.16,1.18,1.18,0,0,1,.61.16,1.07,1.07,0,0,1,.43.44,1.36,1.36,0,0,1,.15.65A1.43,1.43,0,0,1,65.77,22.38Z"/><path class="a883a38e-f28b-4730-961c-f34d972e3b6b" d="M50.34,12.52a2.38,2.38,0,1,0,0,3.77v.39h1.07V10.42H50.34Zm-1.45,3.3a1.42,1.42,0,1,1,1.42-1.42A1.42,1.42,0,0,1,48.89,15.82Z"/><path class="a883a38e-f28b-4730-961c-f34d972e3b6b" d="M56.14,21.36a1.54,1.54,0,0,0,.27-.92,1.51,1.51,0,0,0-.53-1.21,2.14,2.14,0,0,0-1.43-.43H52.61v4.7h.68V22.07h1.45l1,1.44h.73l-1.12-1.58A1.44,1.44,0,0,0,56.14,21.36Zm-1.71.14H53.29V19.38h1.14a1.51,1.51,0,0,1,1,.27,1,1,0,0,1,.34.79.93.93,0,0,1-.34.78A1.46,1.46,0,0,1,54.43,21.5Z"/><path class="a883a38e-f28b-4730-961c-f34d972e3b6b" d="M52.84,11.71a.68.68,0,0,0,0-1.36.68.68,0,0,0,0,1.36Z"/><path class="a883a38e-f28b-4730-961c-f34d972e3b6b" d="M62.44,23a.53.53,0,0,1-.41-.16.64.64,0,0,1-.14-.44V18.52h-.64v3.93a1.07,1.07,0,0,0,.28.8,1,1,0,0,0,.8.29,1.44,1.44,0,0,0,.46-.08l0-.53A.88.88,0,0,1,62.44,23Z"/><path class="a883a38e-f28b-4730-961c-f34d972e3b6b" d="M60.24,20.74a1.78,1.78,0,0,0-.63-.62,1.87,1.87,0,0,0-.88-.21,1.77,1.77,0,0,0-.92.23,1.67,1.67,0,0,0-.64.65,1.91,1.91,0,0,0-.23.93,1.85,1.85,0,0,0,.24.94,1.68,1.68,0,0,0,.67.65,2.17,2.17,0,0,0,1,.23,2.09,2.09,0,0,0,.81-.15,1.5,1.5,0,0,0,.59-.43l-.35-.41a1.34,1.34,0,0,1-1,.43,1.39,1.39,0,0,1-.77-.21,1.07,1.07,0,0,1-.45-.57l2.83-.55A1.81,1.81,0,0,0,60.24,20.74Zm-2.68,1v-.06a1.33,1.33,0,0,1,.15-.65,1.11,1.11,0,0,1,.42-.44,1.16,1.16,0,0,1,.6-.15,1.12,1.12,0,0,1,.72.24,1.1,1.1,0,0,1,.39.63Z"/><path class="a883a38e-f28b-4730-961c-f34d972e3b6b" d="M75.32,20.78a.65.65,0,0,0,.12-.39.62.62,0,0,0-.23-.51.9.9,0,0,0-.6-.18h-.76v2h.32v-.58h.55l.4.57v0h.36L75,21A.59.59,0,0,0,75.32,20.78Zm-.71,0h-.44V20h.44a.63.63,0,0,1,.37.1.35.35,0,0,1,.13.3.32.32,0,0,1-.13.29A.56.56,0,0,1,74.61,20.79Z"/><path class="a883a38e-f28b-4730-961c-f34d972e3b6b" d="M74.56,18.8a1.91,1.91,0,0,0-1.9,1.92h0a1.91,1.91,0,1,0,3.81,0v0A1.91,1.91,0,0,0,74.56,18.8Zm1.65,1.92a1.65,1.65,0,0,1-1.65,1.66,1.62,1.62,0,0,1-1.64-1.65h0a1.65,1.65,0,0,1,1.64-1.67,1.63,1.63,0,0,1,1.65,1.65Z"/><path class="a95e7097-0bd5-4972-94a4-31bc2f13cc0f" d="M12.1,18v5l2.6-1.67V18c0-1.44,1.11-2.33,2.77-2V13.47C14.09,13.06,12.1,15.07,12.1,18Z"/><circle class="a95e7097-0bd5-4972-94a4-31bc2f13cc0f" cx="15.09" cy="10.94" r="1.5"/><path id="b3896b93-f9ee-4601-8087-527f54f685a3" data-name="path80" class="fcfda7fd-cc1b-4a5d-9db2-dcfb7cd16a04" d="M18.09,15.72a.43.43,0,0,0,.32.39,7.52,7.52,0,0,0,1.09.1,7.52,7.52,0,0,0,1.09-.1.43.43,0,0,0,.32-.39V13.79a.43.43,0,0,0-.32-.39,7.83,7.83,0,0,0-1.09-.09,7.83,7.83,0,0,0-1.09.09.43.43,0,0,0-.32.39Z"/><rect class="f7a5f7f4-727d-413e-8a16-d07a03ca199c" x="31.56" y="-31.56" width="32.51" height="95.64" transform="translate(64.07 -31.56) rotate(90)"/></g></g></svg>