<?xml version="1.0" encoding="UTF-8"?>
<!-- Generator: Adobe Illustrator 26.3.1, SVG Export Plug-In . SVG Version: 6.00 Build 0)  -->
<svg version="1.1" id="Calque_1" xmlns="http://www.w3.org/2000/svg" xmlns:xlink="http://www.w3.org/1999/xlink" x="0px" y="0px" viewBox="0 0 32 32" style="enable-background:new 0 0 32 32;" xml:space="preserve">
<style type="text/css">
	.st0{fill:none;}
	.st1{fill:#96154A;}
	.st2{fill:#FFFFFF;}
	.st3{fill:#F6ABB6;}
</style>
<g>
	<rect y="0" class="st0" width="32" height="32"/>
	<path class="st1" d="M24.5,5.4C21.7,5,18.9,4.7,16,4.7C13.1,4.7,10.3,5,7.5,5.4C6.1,5.8,5.1,7,5,8.5v15c0.1,1.5,1.1,2.7,2.5,3.1   c2.8,0.4,5.7,0.7,8.5,0.7c2.9-0.1,5.7-0.3,8.5-0.7c1.4-0.4,2.4-1.6,2.5-3.1v-15C26.9,7,25.9,5.8,24.5,5.4z"/>
	<path class="st2" d="M11.6,17.9v5.7l3-1.9v-3.8c0-1.6,1.3-2.6,3.1-2.3v-2.8C13.9,12.4,11.6,14.6,11.6,17.9z M15,11.6   c0.9,0,1.7-0.8,1.7-1.7c0-0.9-0.8-1.7-1.7-1.7c-0.9,0-1.7,0.8-1.7,1.7c0,0,0,0,0,0C13.3,10.9,14.1,11.6,15,11.6   C15,11.6,15,11.6,15,11.6z"/>
	<path id="fd8426ce-6e69-4daf-a015-4f197f471517" class="st3" d="M18.4,15.4c0,0.2,0.2,0.4,0.4,0.4c0.4,0.1,0.8,0.1,1.2,0.1   c0.4,0,0.8,0,1.2-0.1c0.2-0.1,0.3-0.2,0.4-0.4v-2.2c0-0.2-0.2-0.4-0.4-0.4c-0.4-0.1-0.8-0.1-1.2-0.1c-0.4,0-0.8,0-1.2,0.1   c-0.2,0.1-0.4,0.2-0.4,0.4V15.4z"/>
</g>
</svg>